<?xml version="1.0" encoding="UTF-8"?><svg xmlns="http://www.w3.org/2000/svg" width="73" height="18" xmlns:xlink="http://www.w3.org/1999/xlink" viewBox="0 0 73 18"><defs><linearGradient id="b" x1="36.5" y1="17" x2="36.5" y2="1" gradientUnits="userSpaceOnUse"><stop offset="0" stop-color="#6d6e71" stop-opacity=".2"/><stop offset=".5" stop-color="#fff" stop-opacity=".15"/><stop offset="1" stop-color="#6d6e71" stop-opacity=".2"/></linearGradient></defs><g style="isolation:isolate;"><g id="a"><path d="M69,1c1.65,0,3,1.35,3,3v10c0,1.65-1.35,3-3,3H4c-1.65,0-3-1.35-3-3V4c0-1.65,1.35-3,3-3h65M69,0H4C1.79,0,0,1.79,0,4v10c0,2.21,1.79,4,4,4h65c2.21,0,4-1.79,4-4V4c0-2.21-1.79-4-4-4h0Z" style="fill:#939598;"/><path d="M4,1h53v16H4c-1.66,0-3-1.34-3-3V4c0-1.66,1.34-3,3-3Z" style="fill:#ef5222;"/><rect x="1" y="1" width="71" height="16" rx="3" ry="3" style="fill:url(#b); mix-blend-mode:hard-light;"/><g style="opacity:.5;"><rect x="8" y="1" width="1" height="16" style="fill:#414042;"/><rect x="16" y="1" width="1" height="16" style="fill:#414042;"/><rect x="24" y="1" width="1" height="16" style="fill:#414042;"/><rect x="32" y="1" width="1" height="16" style="fill:#414042;"/><rect x="40" y="1" width="1" height="16" style="fill:#414042;"/><rect x="48" y="1" width="1" height="16" style="fill:#414042;"/><rect x="56" y="1" width="1" height="16" style="fill:#414042;"/><rect x="64" y="1" width="1" height="16" style="fill:#414042;"/></g></g></g></svg>
